<svg width="24" height="24" viewBox="0 0 24 24" fill="none" xmlns="http://www.w3.org/2000/svg">
<circle cx="12" cy="12" r="12" fill="#675A54"/>
<path d="M12.06 11.4C13.0867 11.456 13.866 11.736 14.398 12.24C14.9393 12.7347 15.21 13.3833 15.21 14.186C15.21 14.746 15.0747 15.2453 14.804 15.684C14.5333 16.1133 14.132 16.454 13.6 16.706C13.068 16.958 12.4193 17.084 11.654 17.084C10.9447 17.084 10.2727 16.972 9.638 16.748C9.01267 16.5147 8.50867 16.2067 8.126 15.824L8.616 15.026C8.94267 15.362 9.37667 15.6373 9.918 15.852C10.4593 16.0573 11.038 16.16 11.654 16.16C12.4567 16.16 13.0773 15.9873 13.516 15.642C13.9547 15.2873 14.174 14.802 14.174 14.186C14.174 13.5793 13.9547 13.1033 13.516 12.758C13.0773 12.4127 12.4147 12.24 11.528 12.24H10.828V11.498L13.544 8.096H8.532V7.2H14.832V7.914L12.06 11.4Z" fill="white"/>
</svg>
