<svg width="24" height="24" viewBox="0 0 24 24" fill="none" xmlns="http://www.w3.org/2000/svg">
<circle cx="12" cy="12" r="12" fill="#675A54"/>
<path d="M15.42 16.104V17H8.546V16.286L12.62 12.296C13.1333 11.792 13.4787 11.358 13.656 10.994C13.8427 10.6207 13.936 10.2473 13.936 9.874C13.936 9.29533 13.7353 8.84733 13.334 8.53C12.942 8.20333 12.3773 8.04 11.64 8.04C10.492 8.04 9.60067 8.404 8.966 9.132L8.252 8.516C8.63467 8.068 9.12 7.72267 9.708 7.48C10.3053 7.23733 10.9773 7.116 11.724 7.116C12.7227 7.116 13.5113 7.354 14.09 7.83C14.678 8.29667 14.972 8.94067 14.972 9.762C14.972 10.266 14.86 10.7513 14.636 11.218C14.412 11.6847 13.9873 12.2213 13.362 12.828L10.03 16.104H15.42Z" fill="white"/>
</svg>
