<svg width="193" height="177" viewBox="0 0 193 177" fill="none" xmlns="http://www.w3.org/2000/svg">
<circle cx="83" cy="94" r="83" fill="#7EC95C"/>
<path d="M87.3767 86.3617C92.8967 97.21 101.79 106.065 112.638 111.623L121.072 103.19C122.107 102.155 123.64 101.81 124.982 102.27C129.275 103.688 133.913 104.455 138.667 104.455C140.775 104.455 142.5 106.18 142.5 108.288V121.667C142.5 123.775 140.775 125.5 138.667 125.5C102.672 125.5 73.5 96.3283 73.5 60.3333C73.5 58.225 75.225 56.5 77.3333 56.5H90.75C92.8583 56.5 94.5833 58.225 94.5833 60.3333C94.5833 65.125 95.35 69.725 96.7683 74.0183C97.19 75.36 96.8833 76.855 95.81 77.9283L87.3767 86.3617Z" fill="#675A54"/>
<path fill-rule="evenodd" clip-rule="evenodd" d="M112.375 6.86727C154.506 8.70367 187.456 43.8767 186.613 86.0761C186.613 86.0762 186.613 86.0763 186.613 86.0763C186.612 86.122 186.611 86.1677 186.61 86.2133C185.692 128.464 151.232 162.236 109.03 162.253C109.02 162.253 109.01 162.253 109 162.253C108.99 162.253 108.98 162.253 108.97 162.253C66.7696 162.236 32.3095 128.464 31.3917 86.2133C31.3907 86.1676 31.3898 86.1218 31.3889 86.0761C30.5452 43.8766 63.4962 8.70354 105.625 6.86726C105.728 6.86726 105.828 6.8672 105.926 6.8671C105.926 6.8671 105.926 6.8671 105.926 6.8671C109.285 6.86368 109.49 6.8027 109.7 6.7792C109.875 6.75957 110.053 6.76609 112.074 6.85415C112.17 6.85833 112.271 6.8627 112.375 6.86726C112.375 6.86726 112.375 6.86726 112.375 6.86727ZM192.98 86.3517C191.988 132.129 154.747 168.794 109 169C63.2544 168.794 26.0139 132.129 25.0203 86.3517C25.0192 86.3023 25.0182 86.2529 25.0172 86.2034C24.1029 40.4554 59.7212 2.31163 105.331 0.121834C105.429 0.117131 105.527 0.112594 105.625 0.108222C109.392 -0.0596807 110.309 0.00396773 111.111 0.0596719C111.472 0.0847632 111.81 0.108243 112.375 0.108222C112.473 0.112593 112.571 0.117131 112.669 0.121833C158.279 2.31162 193.897 40.4554 192.983 86.2034C192.982 86.2529 192.981 86.3023 192.98 86.3517Z" fill="#675A54"/>
</svg>
