<svg width="59" height="53" viewBox="0 0 59 53" fill="none" xmlns="http://www.w3.org/2000/svg">
<ellipse cx="26.0024" cy="26.2711" rx="19.0748" ry="19.7035" transform="rotate(-27.3997 26.0024 26.2711)" fill="#7EC95C"/>
<path fill-rule="evenodd" clip-rule="evenodd" d="M53.8958 4.25049H15.1041C12.2907 4.25049 10 6.48726 10 9.23444V31.1636C10 33.9107 12.2907 36.1475 15.1041 36.1475H53.8957C56.7091 36.1475 58.9999 33.9107 58.9999 31.1636V9.23444C59 6.48726 56.7092 4.25049 53.8958 4.25049ZM56.9583 31.1635C56.9583 32.8122 55.5843 34.1538 53.8958 34.1538H15.1041C13.4156 34.1538 12.0416 32.8122 12.0416 31.1635V13.5005H56.9582V31.1635H56.9583ZM56.9582 11.5869H12.0416V9.23444C12.0416 7.58574 13.4156 6.24411 15.1041 6.24411H53.8957C55.5842 6.24411 56.9582 7.58574 56.9582 9.23444V11.5869ZM47.7709 22.1926H49.8125C51.501 22.1926 52.875 23.5343 52.875 25.1829V27.1764C52.875 28.8251 51.501 30.1667 49.8125 30.1667H47.7709C46.0824 30.1667 44.7084 28.8251 44.7084 27.1764V25.1829C44.7084 23.5342 46.0824 22.1926 47.7709 22.1926ZM49.8125 28.1733C50.376 28.1733 50.8334 27.7268 50.8334 27.1765V25.183C50.8334 24.6328 50.376 24.1862 49.8125 24.1862H47.7709C47.2074 24.1862 46.75 24.6328 46.75 25.183V27.1765C46.75 27.7268 47.2074 28.1733 47.7709 28.1733H49.8125ZM17.1459 28.1733H29.3959C29.9594 28.1733 30.4167 28.6199 30.4167 29.17C30.4167 29.7202 29.9594 30.1667 29.3959 30.1667H17.1459C16.5824 30.1667 16.125 29.7202 16.125 29.17C16.125 28.6199 16.5824 28.1733 17.1459 28.1733Z" fill="#675A54"/>
</svg>
