<svg width="49" height="55" viewBox="0 0 49 55" fill="none" xmlns="http://www.w3.org/2000/svg">
<ellipse cx="20.139" cy="27.4094" rx="14.4988" ry="24.4825" transform="rotate(-11.8925 20.139 27.4094)" fill="#7EC95C"/>
<g clip-path="url(#clip0)">
<path fill-rule="evenodd" clip-rule="evenodd" d="M42.7826 14.1876C46.0535 17.4586 48.1823 21.5689 48.9524 26.086C49.0649 26.7177 48.6322 27.3234 48.0005 27.4186C47.9935 27.4194 47.9867 27.4203 47.9798 27.4212C47.919 27.4289 47.8637 27.4359 47.8015 27.4359C47.239 27.4359 46.7458 27.0378 46.6506 26.4667C45.967 22.4343 44.0633 18.7566 41.1384 15.8318C38.2136 12.9156 34.5359 11.0032 30.5035 10.3196C29.8631 10.2071 29.4391 9.61002 29.543 8.96968C29.6555 8.33798 30.2525 7.90532 30.8842 8.01781C35.4013 8.78796 39.5116 10.9167 42.7826 14.1876ZM27.0946 45.5525L27.1295 45.5721L27.2544 45.6421L27.3594 45.7004C27.4088 45.7278 27.4584 45.7551 27.508 45.7823C27.6013 45.8334 27.6948 45.8842 27.7885 45.9346L27.8094 45.9459L27.811 45.9467C28.3183 46.2192 28.8322 46.4813 29.3526 46.7329L29.3586 46.7357L29.3685 46.7404C30.1178 47.0952 30.961 47.474 31.8794 47.8186C32.7373 48.1404 33.6609 48.4324 34.6346 48.6468L34.6447 48.649L34.7153 48.6644L34.7515 48.6721C35.4657 48.8242 36.2064 48.9339 36.9675 48.9827L36.9687 48.9828L36.9749 48.9831C37.1364 48.9908 37.3044 48.9983 37.4608 48.9998L37.4781 48.9999L37.5127 49L37.5213 49C39.4064 48.9981 41.0065 48.3568 42.2851 47.0834C42.3493 47.0194 42.4128 46.9538 42.4754 46.8866L42.4976 46.8627L42.5057 46.854C42.51 46.8454 42.5165 46.8389 42.523 46.8324C42.5295 46.8259 42.5359 46.8194 42.5403 46.8108L42.5476 46.8019C42.8402 46.4484 43.1619 46.1165 43.5008 45.7826C43.6424 45.6431 43.787 45.5033 43.9338 45.3614L44.0503 45.2487L44.0546 45.2445L44.0702 45.2296C44.4275 44.8887 44.7925 44.5319 45.1499 44.1592L45.1795 44.1282L45.1809 44.1268L45.201 44.1057L45.2096 44.0968L45.2133 44.0928L45.2175 44.0883C45.2906 44.0108 45.3606 43.9323 45.4276 43.8527C46.1228 43.0261 46.4862 42.0906 46.4862 41.1342C46.4862 40.0612 46.0276 39.0314 45.1536 38.1661L45.1406 38.1531L45.1326 38.145L43.5008 36.5073L40.4404 33.4357L40.4029 33.3981L40.3823 33.3768L40.3816 33.3761L40.3645 33.3586C39.7745 32.7567 39.1009 32.3537 38.382 32.1703C38.2866 32.1459 38.1905 32.1255 38.0936 32.1089L38.0548 32.1025L38.0503 32.1018C37.9584 32.0872 37.866 32.0762 37.773 32.0687C37.6895 32.0619 37.6056 32.0581 37.5213 32.0571L37.5127 32.057L37.4781 32.0568L37.4608 32.0569C37.2752 32.0577 37.0909 32.0726 36.9085 32.1011C36.7319 32.1287 36.557 32.1692 36.3844 32.2224L36.3637 32.2289L36.3326 32.2388L36.2988 32.2499C36.2658 32.2609 36.2328 32.2724 36.1999 32.2844L36.1765 32.293C35.5972 32.508 35.0465 32.8679 34.5437 33.3645L34.5186 33.3894L34.5143 33.3938L34.51 33.3981L34.4493 33.4586L34.275 33.6324L34.2674 33.6399L34.2361 33.6711L34.1135 33.7933L33.9176 33.9885L33.8513 34.0546L33.7776 34.1281L33.6123 34.2929L33.6061 34.2991L33.5472 34.3578L33.5301 34.3749L33.4986 34.4062L33.0927 34.8108L32.5174 35.3843L32.25 35.6509L31.8794 36.0203L31.7842 36.1152C31.6355 36.0352 31.4868 35.9589 31.3406 35.8839C31.2656 35.8454 31.1912 35.8072 31.1179 35.7691L31.1075 35.7639L31.0023 35.7113L30.9444 35.6822C30.928 35.6739 30.9116 35.6656 30.8953 35.6574C30.8706 35.6449 30.846 35.6324 30.8216 35.6199C30.6204 35.5172 30.4309 35.4158 30.2612 35.3105L30.2486 35.3024L30.2461 35.3009C30.1277 35.2256 30.0098 35.1492 29.8923 35.0717C29.8336 35.033 29.7751 34.994 29.7166 34.9548C29.5466 34.8406 29.3775 34.7242 29.2095 34.6054C28.8747 34.3689 28.5439 34.1232 28.2165 33.868C28.1496 33.8159 28.0828 33.7633 28.0162 33.7104C27.9019 33.6195 27.788 33.5275 27.6745 33.4343L27.674 33.4338L27.6694 33.43C27.2416 33.0785 26.8197 32.7101 26.4028 32.3241L26.3274 32.254C26.1963 32.1317 26.0657 32.0077 25.9355 31.8819C25.4852 31.4467 25.0406 30.9903 24.6006 30.5118C24.3121 30.198 24.0257 29.8747 23.7409 29.5416L23.7221 29.5197L23.7163 29.5128L23.6997 29.4934C23.5138 29.2751 23.3285 29.0527 23.144 28.8259L23.1395 28.8205L23.13 28.8085C23.0968 28.7665 23.064 28.7248 23.0315 28.6832L22.9798 28.6168L22.9722 28.6071C22.3543 27.8116 21.8577 27.0876 21.45 26.3866C21.3881 26.2802 21.3283 26.1743 21.2704 26.0687C21.2462 26.0246 21.2223 25.9806 21.1988 25.9366C21.1791 25.8998 21.1597 25.863 21.1405 25.8263L21.131 25.8082L21.103 25.7542C21.0811 25.7118 21.0596 25.6694 21.0383 25.6271C20.9556 25.4627 20.8774 25.2986 20.8031 25.1342L20.8213 25.1175C20.9195 25.0276 21.0166 24.9371 21.1129 24.8463L21.1718 24.7906L21.1771 24.7856L21.2535 24.7129C21.3336 24.6364 21.413 24.5598 21.492 24.483C21.8807 24.1049 22.2562 23.7238 22.6249 23.3497L22.7733 23.1991L22.8107 23.1612L22.8215 23.1504C22.939 23.0327 23.0566 22.9131 23.1741 22.7934L23.3091 22.6562L23.393 22.5711C23.4412 22.5224 23.4894 22.4739 23.5376 22.4257L23.5419 22.4213L23.5462 22.417L23.5635 22.3995L23.5934 22.369L23.6105 22.3515L23.6396 22.3211C24.2833 21.6445 24.6805 20.8979 24.8313 20.1349C24.8351 20.1157 24.8387 20.0966 24.8422 20.0774L24.85 20.0324L24.8508 20.0275L24.8569 19.9898C24.8951 19.7455 24.9082 19.4998 24.8961 19.2546L24.8956 19.2451L24.8955 19.2439L24.8936 19.2096C24.8794 18.9807 24.8433 18.7522 24.7853 18.5257C24.6054 17.8232 24.2148 17.1388 23.6135 16.5149C23.5899 16.4905 23.5661 16.4661 23.5419 16.4419L23.5376 16.4376L21.2049 14.1049L21.1795 14.0795L21.1752 14.0752C20.9115 13.8115 20.6394 13.5394 20.3836 13.2672L20.3832 13.2667L20.3704 13.2531C19.8678 12.7338 19.3409 12.1982 18.7975 11.6935L18.7706 11.6686L18.7436 11.6436L18.7398 11.6398C17.9058 10.8161 16.9098 10.3764 15.8621 10.3716L15.8448 10.3716C14.8037 10.3716 13.7962 10.8008 12.9386 11.6094L12.9026 11.6436L12.8853 11.6609L12.8336 11.7131L12.8293 11.7174L12.2509 12.3009L12.1013 12.4518L12.0298 12.524L11.9866 12.5675L10.5941 13.9723L10.4502 14.1175L9.96041 14.6116L9.94749 14.6247L9.94318 14.629L9.91729 14.655C8.9187 15.6638 8.31232 16.872 8.11108 18.2603C8.09277 18.3866 8.07782 18.5143 8.06623 18.6436L8.06551 18.6517L8.06541 18.6528C7.96472 19.8778 8.08776 21.0621 8.30634 22.1328L8.3152 22.1759L8.31602 22.1798C8.35094 22.3482 8.38818 22.5137 8.42725 22.676C8.4364 22.7141 8.44566 22.7519 8.455 22.7896C8.5684 23.2468 8.69561 23.6781 8.82507 24.0769C8.85422 24.1667 8.88348 24.2548 8.91272 24.3413L8.92106 24.3658L8.9223 24.3695C9.00722 24.6194 9.09187 24.8547 9.17303 25.0736L9.17305 25.0736L9.17548 25.0802C9.23797 25.2486 9.30183 25.4165 9.3671 25.584C9.39505 25.6556 9.42325 25.7272 9.45171 25.7987L9.45417 25.8049C9.77014 26.5981 10.1181 27.3805 10.5012 28.1569L10.5609 28.2771L10.5979 28.3513C10.6848 28.5245 10.7735 28.6974 10.8639 28.8701C10.8915 28.9228 10.9192 28.9754 10.9471 29.028L10.9501 29.0336C11.0288 29.1818 11.1088 29.3299 11.1901 29.4778C11.2374 29.5638 11.2852 29.6497 11.3334 29.7357C11.8499 30.6562 12.4197 31.5731 13.0483 32.4951C13.6582 33.3899 14.3235 34.2893 15.049 35.2012L15.0587 35.2135L15.1299 35.3027L15.1477 35.3249C15.3101 35.5277 15.4754 35.7312 15.6439 35.9354L15.6517 35.9449C15.6985 36.0016 15.7455 36.0584 15.7928 36.1152L15.8031 36.1275L15.8102 36.136C18.1038 38.8713 20.6791 41.2583 23.5091 43.2742C23.7887 43.4734 24.0709 43.669 24.3555 43.8609C24.4642 43.9342 24.5733 44.007 24.6828 44.0793L24.6892 44.0835L24.6912 44.0848L24.7791 44.1427C25.2712 44.4655 25.7705 44.7776 26.2768 45.0789C26.3213 45.1053 26.3658 45.1317 26.4104 45.158L26.4205 45.1639C26.459 45.1866 26.4976 45.2093 26.5362 45.2319C26.5578 45.2445 26.5794 45.2571 26.601 45.2697C26.6654 45.3072 26.7299 45.3445 26.7945 45.3817C26.8943 45.439 26.9943 45.496 27.0946 45.5525ZM27.4661 43.0727C27.5874 43.145 27.7091 43.2166 27.8313 43.2876L27.9005 43.3277C28.0326 43.4041 28.1652 43.4797 28.2982 43.5545L28.403 43.6131C28.5844 43.7143 28.7666 43.8141 28.9498 43.9124C29.0579 43.9705 29.1664 44.028 29.2752 44.0851C29.3546 44.1267 29.4342 44.1681 29.5139 44.2092L29.5368 44.2209L29.5393 44.2223C29.8078 44.3604 30.0782 44.4955 30.3504 44.6275L30.3665 44.6353L30.3737 44.6388C30.8379 44.8608 31.3422 45.0927 31.8794 45.3173C33.2909 45.9074 34.9293 46.4473 36.6636 46.6253L36.668 46.6257L36.7283 46.6317L36.768 46.6355C36.871 46.6452 36.9744 46.6536 37.0781 46.6607L37.1163 46.6632L37.1233 46.6636C37.2331 46.671 37.3491 46.6721 37.4608 46.6723L37.4781 46.6723L37.5127 46.6723H37.5213C38.6315 46.6723 39.5251 46.3738 40.2936 45.748C40.3089 45.7356 40.3242 45.723 40.3393 45.7103C40.4412 45.625 40.5409 45.534 40.6386 45.437C40.6742 45.4016 40.7095 45.3655 40.7446 45.3286L40.775 45.2964L40.7925 45.2758L40.8495 45.2094C41.3616 44.6159 41.903 44.083 42.4368 43.5737L42.4451 43.5658L42.4497 43.5613C42.5147 43.4978 42.5789 43.4353 42.6424 43.3736L42.6426 43.3734C42.9384 43.0858 43.219 42.813 43.4939 42.5175L43.4985 42.5125L43.5008 42.51L43.5309 42.4784L43.5541 42.4535L43.5637 42.4431L43.5678 42.4386C43.6314 42.3689 43.6899 42.2992 43.7433 42.2297C44.0252 41.8624 44.1648 41.4969 44.1616 41.1342C44.1578 40.6922 43.9421 40.2544 43.5133 39.8227L43.5021 39.8115L43.5008 39.8102L43.4921 39.8016L38.9224 35.2319L38.7428 35.0522L38.7242 35.0336L38.7123 35.0217L38.7068 35.0163C38.5229 34.8145 38.2576 34.5924 37.936 34.4728C37.9254 34.4688 37.9147 34.465 37.9039 34.4612L37.899 34.4595C37.8229 34.4335 37.7438 34.4132 37.6619 34.4004C37.6159 34.3931 37.569 34.3883 37.5213 34.386L37.5127 34.3856C37.5012 34.3852 37.4897 34.3848 37.4781 34.3847L37.4608 34.3846C36.9516 34.3846 36.5104 34.6941 36.2146 34.9746C36.1953 34.993 36.1765 35.0112 36.1584 35.0292L36.1558 35.0318L36.1541 35.0336L36.1498 35.0379L36.0892 35.0985L35.9467 35.241L35.9401 35.2476L35.9136 35.2741L35.8147 35.373L35.5032 35.6845L35.4186 35.7691L35.2145 35.9732L35.2086 35.9791L35.145 36.0427L35.1207 36.067L33.9627 37.225L33.9354 37.2523L33.8797 37.308L33.7647 37.423L33.4257 37.762L33.1947 37.993C33.1673 38.0203 33.1295 38.0581 33.0815 38.1016C33.0691 38.1128 33.056 38.1244 33.0423 38.1362C32.9856 38.1852 32.9173 38.2391 32.8378 38.2921C32.7824 38.3292 32.7214 38.3658 32.655 38.4C32.5934 38.4318 32.5271 38.4614 32.4563 38.4875C32.4114 38.504 32.3647 38.519 32.3161 38.5322L32.3142 38.5327C32.1825 38.5683 32.0374 38.5901 31.8794 38.5901C31.5938 38.5901 31.3169 38.5209 31.0227 38.3738C31.0054 38.3651 30.9881 38.3543 30.9708 38.3435C30.9535 38.3327 30.9362 38.3218 30.9188 38.3132C30.842 38.2655 30.761 38.2185 30.6767 38.1719C30.489 38.0681 30.2849 37.9659 30.0726 37.8597L30.0622 37.8546L30.0622 37.8546L30.0394 37.8432C29.7104 37.6787 29.3665 37.5057 29.0296 37.2948L29.0091 37.2819L28.9978 37.2748C28.4162 36.907 27.846 36.5156 27.2859 36.0997C26.9239 35.8309 26.5661 35.5518 26.2122 35.2621L26.2088 35.2593L26.1689 35.2266C25.9004 35.006 25.6342 34.7792 25.3701 34.5463C25.3172 34.4997 25.2645 34.4528 25.2118 34.4057C24.2387 33.5355 23.2942 32.5802 22.3712 31.5335C22.2269 31.3699 22.0831 31.204 21.9399 31.0359L21.923 31.0162L21.9225 31.0156L21.9057 30.9958C21.7113 30.7671 21.5178 30.5342 21.3252 30.2971L21.3137 30.2829L21.305 30.2742L21.3038 30.2728C21.1239 30.0442 20.9523 29.8207 20.7887 29.6013C19.8598 28.3558 19.1861 27.2429 18.6741 26.0961C18.6175 25.9692 18.5628 25.8419 18.51 25.7139L18.484 25.6361C18.3283 25.1428 18.1898 24.4159 18.934 23.6717C18.9395 23.6607 18.9485 23.6532 18.9589 23.6447L18.9592 23.6444L18.9636 23.6408C18.9659 23.6389 18.9683 23.6369 18.9706 23.6347C18.9728 23.6328 18.975 23.6307 18.9773 23.6285L19.0008 23.6074C19.0563 23.5575 19.1115 23.5075 19.1664 23.4574L19.2225 23.4061C19.8813 22.802 20.5004 22.1813 21.1468 21.5195L21.1492 21.5171L21.158 21.5086C21.322 21.35 21.4823 21.1879 21.6438 21.0245L21.7123 20.9552L21.778 20.8888C21.8149 20.8516 21.8519 20.8144 21.8891 20.7772L21.8934 20.7729L21.8978 20.7686L21.9177 20.7485L21.9449 20.7205L21.9618 20.7028L21.9837 20.6797C22.1366 20.5164 22.2603 20.3552 22.3545 20.1952L22.3606 20.1848L22.3613 20.1836C22.3682 20.1716 22.375 20.1597 22.3816 20.1478C22.4224 20.0741 22.4569 20.0007 22.4852 19.9275C22.4917 19.9108 22.4978 19.8942 22.5036 19.8775C22.5079 19.8652 22.512 19.8529 22.5159 19.8405L22.5173 19.8363C22.7 19.2581 22.4921 18.689 21.8934 18.0904L21.8891 18.086L21.7639 17.9608L19.5311 15.728L19.5268 15.7236C19.3909 15.5835 19.2551 15.4455 19.1203 15.3086L19.1201 15.3085L19.12 15.3083C18.9816 15.1677 18.8442 15.0282 18.709 14.8886L18.6952 14.8744L18.6695 14.8478C18.1608 14.3229 17.6751 13.8298 17.1657 13.353L17.1514 13.3397L17.1254 13.3137L17.1079 13.2963C16.8301 13.0233 16.3959 12.708 15.8621 12.708L15.8448 12.7081C15.4152 12.7136 14.9779 12.9234 14.5647 13.3057L14.5543 13.3153L14.5468 13.3224L14.5302 13.339L14.4948 13.3743L14.4905 13.3786L13.8804 13.9887L13.7593 14.1098L13.6986 14.1706L13.6636 14.2055L12.1718 15.6973L12.0109 15.8583L11.6089 16.2602L11.5989 16.2702L11.596 16.2732L11.5916 16.2775L11.5658 16.3036C10.8668 17.0151 10.4871 17.845 10.4018 18.8432L10.4017 18.8448L10.4005 18.8592C10.3864 19.0354 10.3775 19.2127 10.374 19.3918C10.3698 19.6096 10.3734 19.83 10.3853 20.0539L10.3871 20.0872L10.388 20.1031C10.3964 20.2472 10.4081 20.3927 10.4233 20.54C10.4269 20.5749 10.4306 20.6099 10.4346 20.645C10.4936 21.1648 10.5949 21.7065 10.741 22.2808C10.7605 22.3576 10.7809 22.4349 10.802 22.5129L10.8088 22.538L10.8097 22.5411C10.9197 22.9439 11.0512 23.3629 11.205 23.8018C11.2258 23.8613 11.2471 23.9213 11.2688 23.9816L11.2711 23.9879C11.3033 24.0774 11.3364 24.1677 11.3705 24.2588L11.3705 24.259L11.371 24.2602C11.7506 25.286 12.1865 26.2914 12.6863 27.2888L12.6892 27.2946C12.7139 27.3439 12.7388 27.3932 12.7639 27.4424L12.8076 27.5282L12.8456 27.6021C12.9092 27.7255 12.9738 27.8489 13.0394 27.9721C13.1349 28.1515 13.2325 28.3307 13.3323 28.5098C13.6667 29.1098 14.0254 29.7087 14.4103 30.3094C14.858 31.0079 15.341 31.7088 15.8621 32.4164C15.9332 32.5131 16.0051 32.6099 16.0777 32.7068C16.3379 33.0541 16.6072 33.4031 16.8861 33.7544L16.8926 33.7627L16.9453 33.829L16.9612 33.8489C17.0741 33.9904 17.1886 34.1323 17.3046 34.2747L17.3124 34.2842C17.4021 34.3942 17.4927 34.5044 17.5843 34.6149L17.5893 34.6209L17.6014 34.6355C19.4189 36.8052 21.4245 38.742 23.601 40.4336C23.7873 40.5784 23.9749 40.7214 24.1637 40.8626C24.7418 41.2949 25.3315 41.7103 25.9325 42.1085L25.9385 42.1125L25.9403 42.1136L26.01 42.1597C26.1866 42.2761 26.3642 42.391 26.5428 42.5045C26.8112 42.675 27.0819 42.8422 27.3547 43.0061L27.4561 43.0668L27.4661 43.0727ZM30.1574 17.753C32.4245 18.1337 34.484 19.2067 36.1282 20.8509C37.7723 22.495 38.8367 24.5545 39.2261 26.8217C39.3212 27.3928 39.8145 27.7908 40.377 27.7908C40.4392 27.7908 40.4944 27.7838 40.5552 27.7761L40.576 27.7735C41.2163 27.6697 41.6403 27.064 41.5365 26.4236C41.0692 23.6805 39.7712 21.1797 37.7896 19.1981C35.808 17.2165 33.3072 15.9185 30.5641 15.4512C29.9237 15.3473 29.3267 15.7714 29.2142 16.4031C29.1017 17.0347 29.517 17.6491 30.1574 17.753Z" fill="#675A54"/>
</g>
<defs>
<clipPath id="clip0">
<rect width="41" height="41" fill="white" transform="translate(8 8)"/>
</clipPath>
</defs>
</svg>
