<svg width="55" height="59" viewBox="0 0 55 59" fill="none" xmlns="http://www.w3.org/2000/svg">
<ellipse cx="23.4101" cy="29.672" rx="13.9112" ry="25.1271" transform="rotate(-25.6258 23.4101 29.672)" fill="#7EC95C"/>
<path fill-rule="evenodd" clip-rule="evenodd" d="M27.4935 6.59516C23.4749 2.57855 15.6108 2.11279 10.0444 2.11279C9.46791 2.11279 9 2.5806 9 3.15709C9 8.72351 9.4637 16.5876 13.4824 20.6063C15.1785 22.3024 17.7789 23.0606 20.3564 23.0606C22.4418 23.0606 24.5134 22.5639 26.0797 21.6661C28.203 26.1109 29.8872 32.7569 29.8872 42.8431C29.8872 43.4196 30.3551 43.8875 30.9316 43.8875C31.5081 43.8875 31.976 43.4196 31.976 42.8453C31.976 37.1808 32.939 30.3752 36.5487 24.7778C38.1164 26.3102 40.8656 27.1903 43.6415 27.1903C46.2189 27.1903 48.8173 26.4341 50.5175 24.7381C54.5341 20.7195 54.9999 12.8554 54.9999 7.28888C55 6.71239 54.5321 6.24449 53.9556 6.24449C48.3892 6.24449 40.5251 6.70818 36.5063 10.7269C33.5441 13.6874 33.443 19.3996 35.2395 22.9415C33.3129 25.7197 32.0318 28.7935 31.2073 31.9065C30.4457 26.9644 29.1879 23.2052 27.7551 20.3243C30.5159 17.1681 30.9303 10.0298 27.4935 6.59516ZM26.649 18.3176C28.2967 15.6511 28.3614 10.4186 26.0168 8.07398C22.7731 4.83016 16.1831 4.26836 11.095 4.20775C11.1556 9.29589 11.7175 15.8858 14.9613 19.1296C17.2772 21.4455 22.4091 21.4106 25.1053 19.8215C22.7738 15.8253 20.1643 14.0401 18.7063 13.0432C18.2238 12.7133 17.8666 12.4563 17.6598 12.2516C17.2525 11.8443 17.2525 11.1822 17.6598 10.7749C18.0671 10.3676 18.7293 10.3676 19.1366 10.7749C19.2571 10.8937 19.4571 11.0295 19.7132 11.2034C19.7678 11.2405 19.8249 11.2793 19.8843 11.32L19.8859 11.3211C21.431 12.3785 24.169 14.2523 26.649 18.3176ZM37.7839 23.0463C39.7705 20.5246 42.3928 18.3307 45.8305 16.7153C45.8305 16.7132 45.9997 16.6338 45.9997 16.6338C46.5198 16.3873 46.6597 15.8066 46.4132 15.2844C46.1668 14.7601 45.4608 14.5806 44.9407 14.8228C41.4883 16.4459 38.793 18.5893 36.7002 21.0435C35.739 18.2288 35.9997 14.185 37.9811 12.2036C41.2249 8.9598 47.8147 8.39799 52.9029 8.33739C52.8424 13.4276 52.2805 20.0175 49.0366 23.2592C46.4216 25.8743 40.2139 25.492 37.9811 23.2592C37.9136 23.1918 37.8479 23.1207 37.7839 23.0463Z" fill="#675A54"/>
</svg>
