<svg width="56" height="41" viewBox="0 0 56 41" fill="none" xmlns="http://www.w3.org/2000/svg">
<ellipse rx="19.2448" ry="18.0553" transform="matrix(0.994399 -0.105694 0.116378 0.993205 21.3634 20.5992)" fill="#7EC95C"/>
<path fill-rule="evenodd" clip-rule="evenodd" d="M48.3845 22.8351L55.687 30.138C56.1043 30.5551 56.1043 31.2315 55.6872 31.6488L52.464 34.872C52.0524 35.2836 51.3647 35.2836 50.9531 34.872L43.6504 27.5693L39.5709 31.6488C39.0008 32.2188 37.9964 31.9507 37.7847 31.1744L36.0813 24.9285H7.06843C6.47841 24.9285 6 24.4501 6 23.86V1.06794C6 0.477922 6.47841 -0.000488281 7.06843 -0.000488281H43.5357C44.1257 -0.000488281 44.6041 0.477922 44.6041 1.06794V14.9551L51.9897 16.9694C52.7658 17.1811 53.0341 18.1855 52.464 18.7556L48.3845 22.8351ZM8.13671 2.13637V22.7916H35.4984L32.9497 13.4462C32.7361 12.6634 33.4787 11.9208 34.2615 12.1344L42.4674 14.3723V2.13637H8.13671ZM44.4059 25.3031L51.7086 32.6058L53.4209 30.8935L46.1182 23.5908C45.701 23.1736 45.701 22.4972 46.1182 22.0799L49.6514 18.5466L35.5032 14.6881L39.3618 28.8362L42.895 25.3031C43.3066 24.8915 43.9943 24.8914 44.4059 25.3031ZM21.8832 27.3503H28.7209C31.1951 27.3503 33.2081 29.3632 33.2081 31.8376C33.2081 34.3118 31.1951 36.3248 28.7209 36.3248H21.8832C19.409 36.3248 17.396 34.3118 17.396 31.8376C17.396 29.3634 19.409 27.3503 21.8832 27.3503ZM21.8832 34.188H28.7209C30.0169 34.188 31.0713 33.1335 31.0713 31.8376C31.0713 30.5417 30.0169 29.4872 28.7209 29.4872H21.8832C20.5873 29.4872 19.5328 30.5415 19.5328 31.8376C19.5328 33.1336 20.5872 34.188 21.8832 34.188Z" fill="#675A54"/>
</svg>
