<svg width="48" height="49" viewBox="0 0 48 49" fill="none" xmlns="http://www.w3.org/2000/svg">
<path opacity="0.4" fill-rule="evenodd" clip-rule="evenodd" d="M23.5 47C35.9264 47 46 36.9264 46 24.5C46 12.0736 35.9264 2 23.5 2C11.0736 2 1 12.0736 1 24.5C1 36.9264 11.0736 47 23.5 47Z" stroke="#959595"/>
<path d="M23.5 2C35.9264 2 46 12.0736 46 24.5C46 30.524 43.6326 35.9951 39.7775 40.0337C38.8686 40.9858 37.8771 41.8582 36.8145 42.6395C33.0863 45.3806 28.4823 47 23.5 47" stroke="#6BBD45" stroke-width="3" stroke-linecap="round" stroke-linejoin="round"/>
<path d="M31.2071 25.2071C31.5976 24.8166 31.5976 24.1834 31.2071 23.7929L24.8431 17.4289C24.4526 17.0384 23.8195 17.0384 23.4289 17.4289C23.0384 17.8195 23.0384 18.4526 23.4289 18.8431L29.0858 24.5L23.4289 30.1569C23.0384 30.5474 23.0384 31.1805 23.4289 31.5711C23.8195 31.9616 24.4526 31.9616 24.8431 31.5711L31.2071 25.2071ZM13.5 25.5L30.5 25.5V23.5L13.5 23.5V25.5Z" fill="#6BBD45"/>
</svg>
