<svg width="48" height="49" viewBox="0 0 48 49" fill="none" xmlns="http://www.w3.org/2000/svg">
<path opacity="0.4" fill-rule="evenodd" clip-rule="evenodd" d="M24.5 47C36.9264 47 47 36.9264 47 24.5C47 12.0736 36.9264 2 24.5 2C12.0736 2 2 12.0736 2 24.5C2 36.9264 12.0736 47 24.5 47Z" stroke="#959595"/>
<path d="M24 2C11.5736 2 1.5 12.0736 1.5 24.5C1.5 30.524 3.86738 35.9951 7.72255 40.0337C8.63136 40.9858 9.62286 41.8582 10.6855 42.6395C14.4137 45.3806 19.0177 47 24 47" stroke="#B0E07D" stroke-width="3" stroke-linecap="round" stroke-linejoin="round"/>
<path d="M32.2071 25.2071C32.5976 24.8166 32.5976 24.1834 32.2071 23.7929L25.8431 17.4289C25.4526 17.0384 24.8195 17.0384 24.4289 17.4289C24.0384 17.8195 24.0384 18.4526 24.4289 18.8431L30.0858 24.5L24.4289 30.1569C24.0384 30.5474 24.0384 31.1805 24.4289 31.5711C24.8195 31.9616 25.4526 31.9616 25.8431 31.5711L32.2071 25.2071ZM14.5 25.5L31.5 25.5V23.5L14.5 23.5V25.5Z" fill="#B0E07D"/>
</svg>
