<svg width="41" height="52" viewBox="0 0 41 52" fill="none" xmlns="http://www.w3.org/2000/svg">
<ellipse cx="17.0724" cy="26" rx="14.5" ry="24" transform="rotate(-6.36781 17.0724 26)" fill="#7EC95C"/>
<path d="M38.3399 16.81C37.0223 13.7979 35.1887 10.9314 32.8898 8.28975C28.9839 3.80166 25.1011 1.52178 24.9376 1.42695L24.2023 1L23.4668 1.42695C23.3034 1.52188 19.4206 3.80166 15.5147 8.28975C13.2157 10.9314 11.3822 13.7979 10.0646 16.81C8.41077 20.5906 7.57239 24.605 7.57239 28.7414C7.57239 37.368 14.2696 44.4594 22.7375 45.0901V51H25.6671V45.0901C34.1351 44.4593 40.8323 37.3679 40.8323 28.7414C40.8322 24.6051 39.9937 20.5906 38.3399 16.81ZM17.6592 10.2883C19.5014 8.15889 21.3595 6.55488 22.7374 5.49424V18.3037L14.9313 13.9265C15.7371 12.6734 16.6476 11.4578 17.6592 10.2883ZM12.7244 18.0395C12.9548 17.5099 13.2034 16.9849 13.469 16.465L22.7374 21.6624V31.0086L10.8615 24.3491C11.2184 22.1854 11.8395 20.0746 12.7244 18.0395ZM22.7375 42.1499C15.887 41.5268 10.5019 35.7517 10.5019 28.7414C10.5019 28.3336 10.5125 27.9272 10.5306 27.5223L22.7375 34.3674V42.1499ZM35.6558 17.984C36.5535 20.0363 37.1827 22.1657 37.5429 24.3491L25.667 31.0086V21.6624L34.9359 16.4647C35.1923 16.9666 35.4324 17.473 35.6558 17.984ZM25.6669 18.3037V5.49102C27.025 6.53594 28.8518 8.11231 30.6798 10.213C31.7176 11.4056 32.6503 12.6462 33.4736 13.9262L25.6669 18.3037ZM25.667 42.1499V34.3674L37.8739 27.5224C37.8919 27.9274 37.9026 28.3337 37.9026 28.7415C37.9027 35.7516 32.5176 41.5268 25.667 42.1499Z" fill="#675A54"/>
</svg>
