<svg width="55" height="55" viewBox="0 0 55 55" fill="none" xmlns="http://www.w3.org/2000/svg">
<g clip-path="url(#clip0)">
<path d="M54.3356 16.2953C53.631 14.9791 52.4561 14.0164 51.0272 13.5841C49.5984 13.1516 48.0867 13.3019 46.7707 14.0065C45.4548 14.7113 44.4919 15.8862 44.0596 17.3151C43.7715 18.2669 43.748 19.2545 43.9685 20.1973L37.934 23.4286C36.0986 20.8517 33.2375 19.0565 29.9502 18.6429V13.4933C32.3291 12.8517 34.085 10.6763 34.085 8.09747C34.085 5.01588 31.5779 2.50879 28.4963 2.50879C25.4148 2.50879 22.9074 5.01588 22.9074 8.09771C22.9074 10.6765 24.6636 12.8519 27.0423 13.4935V18.6427C22.8437 19.1711 19.3383 21.9535 17.7808 25.7382L11.1764 23.9588C11.1779 22.9903 10.9312 22.0337 10.435 21.1718C9.69036 19.8779 8.48637 18.9514 7.04516 18.563C4.06873 17.7609 0.996588 19.53 0.194812 22.5054C-0.193597 23.9469 0.00266746 25.4533 0.74726 26.7469C1.49185 28.0406 2.69585 28.9674 4.13706 29.3558C4.62093 29.4861 5.11184 29.5506 5.60007 29.5506C6.56564 29.5506 7.5191 29.2979 8.37879 28.8033C9.24065 28.3073 9.9346 27.6044 10.4199 26.7663L17.0246 28.546C16.9533 29.0648 16.9134 29.5932 16.9134 30.1314C16.9134 32.8018 17.8242 35.2621 19.3483 37.2236L14.5059 42.0659C12.3702 40.8389 9.59344 41.1309 7.77037 42.9535C5.59135 45.1325 5.59135 48.6781 7.77037 50.8574C8.86 51.947 10.291 52.4917 11.7223 52.4917C13.1533 52.4917 14.5846 51.947 15.6742 50.8574C17.4971 49.0343 17.789 46.2575 16.5618 44.1221L21.4042 39.2797C23.3656 40.8038 25.8257 41.7146 28.4963 41.7146C31.167 41.7146 33.6271 40.8038 35.5885 39.2797L40.4309 44.1221C39.2039 46.2578 39.4956 49.0345 41.3185 50.8574C42.4081 51.947 43.8391 52.4917 45.2704 52.4917C46.7017 52.4917 48.1327 51.9468 49.2223 50.8574C51.4013 48.6784 51.4013 45.1328 49.2223 42.9535C47.3995 41.1307 44.6225 40.8389 42.4871 42.0659L37.6447 37.2236C39.1688 35.2621 40.0796 32.802 40.0796 30.1314C40.0796 28.6725 39.8058 27.2768 39.3112 25.9897L45.3414 22.7608C46.0038 23.4671 46.8388 23.9949 47.7908 24.283C48.3258 24.4448 48.8727 24.525 49.4164 24.525C50.3246 24.525 51.2242 24.3011 52.0473 23.8604C53.3635 23.1558 54.3262 21.9809 54.7584 20.552C55.1907 19.1232 55.0402 17.6112 54.3356 16.2953ZM50.6742 21.2968C50.043 21.6351 49.3178 21.7071 48.6323 21.4994C47.9468 21.2922 47.3833 20.8302 47.0452 20.1987C46.707 19.5675 46.6353 18.8421 46.8427 18.1566C47.0499 17.4711 47.5119 16.9076 48.1434 16.5695C48.5383 16.358 48.9698 16.2507 49.4055 16.2507C49.6662 16.2507 49.9286 16.2892 50.1852 16.3667C50.8707 16.5739 51.4343 17.036 51.7723 17.6674C52.1106 18.2986 52.1823 19.0238 51.9749 19.7093C51.7677 20.3952 51.3056 20.9588 50.6742 21.2968ZM37.1715 30.1311C37.1715 34.9147 33.2796 38.8065 28.4961 38.8065C23.7126 38.8065 19.8207 34.9147 19.8207 30.1311C19.8207 25.3476 23.7126 21.4558 28.4961 21.4558C33.2796 21.4558 37.1715 25.3476 37.1715 30.1311ZM25.815 8.09771C25.815 6.61919 27.0178 5.41665 28.4961 5.41665C29.9744 5.41665 31.1772 6.61943 31.1772 8.09771C31.1772 9.57599 29.9744 10.7788 28.4961 10.7788C27.0178 10.7788 25.815 9.57599 25.815 8.09771ZM4.89352 26.5482C4.20199 26.3619 3.62459 25.9173 3.26744 25.2968C2.91004 24.676 2.81603 23.9534 3.00236 23.2619C3.38689 21.8343 4.8613 20.986 6.28869 21.3705C6.98022 21.5568 7.55763 22.0012 7.91502 22.622C8.27217 23.2428 8.36619 23.9653 8.17986 24.6568C7.79532 26.0845 6.3214 26.9328 4.89352 26.5482ZM13.6181 48.801C12.573 49.8462 10.8718 49.8462 9.82629 48.801C8.78101 47.7557 8.78101 46.0547 9.82629 45.0092C10.3489 44.4865 11.0356 44.2253 11.7223 44.2253C12.4087 44.2253 13.0954 44.4868 13.6181 45.0092C14.6634 46.0547 14.6634 47.7557 13.6181 48.801ZM47.1659 45.0092C48.2112 46.0545 48.2112 47.7554 47.1659 48.801C46.1209 49.8462 44.4197 49.8462 43.3741 48.801C42.3288 47.7557 42.3288 46.0547 43.3741 45.0092C43.8968 44.4865 44.5835 44.2253 45.2701 44.2253C45.9566 44.2253 46.6433 44.4865 47.1659 45.0092Z" fill="#675A54"/>
</g>
<defs>
<clipPath id="clip0">
<rect width="55" height="55" fill="white"/>
</clipPath>
</defs>
</svg>
